# xmcd CD database file
#
# Track frame offsets:
#	150
#	15862
#	33045
#	48269
#	70646
#	84203
#	104939
#	122546
#	135232
#	146994
#	159977
#	180581
#	201077
#
# Disc length: 2924 seconds
#
# Revision: 0
# Processed by: cddbd v1.5.1PL2 Copyright (c) Steve Scherf et al.
# Submitted via: CDex 1.51
#
DISCID=9d0b6a0d
DTITLE=Rankin_John - Fess_Mess
DYEAR=1900
DGENRE=New Age
TTITLE0=Leaving_You
TTITLE1=Fess_Mess
TTITLE2=YouTalkTooMuch
TTITLE3=Djangos_Tears
TTITLE4=IfEverICeaseToLove
TTITLE5=FrankieAndJohnnie
TTITLE6=Moonshine_Rag
TTITLE7=Sweet_Substitute
TTITLE8=Gonzo
TTITLE9=DrunkLastNight
TTITLE10=I_m_Walking
TTITLE11=Fess_Mess
TTITLE12=New_Orleans
EXTD=
EXTT0=
EXTT1=
EXTT2=
EXTT3=
EXTT4=
EXTT5=
EXTT6=
EXTT7=
EXTT8=
EXTT9=
EXTT10=
EXTT11=
EXTT12=
PLAYORDER=
